# xmcd
#
# Track frame offsets:
#	187
#	17235
#	29140
#	46227
#	60035
#	75725
#	87812
#	101305
#	115737
#	128740
#
# Disc length: 1908 seconds
# Revision: 5
# Processed by: cddbd v1.5.2PL0 Copyright (c) Steve Scherf et al.
# Submitted via: dBpowerAMP V12.0
#
DISCID=6f07720a
DTITLE=Aaron Tippin - Lookin' Back At Myself
DYEAR=1994
DGENRE=Country*
TTITLE0=I Got It Honest
TTITLE1=Lovin' Me Into An Early Grave
TTITLE2=She's Got A Way {Of Makin' Me Forget}
TTITLE3=Country Boy's Tool Box
TTITLE4=Lookin' Back At Myself
TTITLE5=Bayou Baby
TTITLE6=Standin' On The Promises
TTITLE7=Mission From Hank
TTITLE8=She Feels Like A Brand New Man Tonight
TTITLE9=You Are The Woman
EXTD=
EXTT0=
EXTT1=
EXTT2=
EXTT3=
EXTT4=
EXTT5=
EXTT6=
EXTT7=
EXTT8=
EXTT9=
PLAYORDER=
